<svg width="1389" height="500" viewBox="0 0 1389 500" fill="none" xmlns="http://www.w3.org/2000/svg">
<path d="M253.246 24.9062V200.319C253.246 232.191 270.44 261.549 298.242 277.142L445.257 359.498C453.443 364.071 463.686 364.345 472.465 359.315C478.456 355.931 482.754 350.124 484.949 343.63L487.647 335.811C489.11 331.604 489.842 327.214 489.842 322.733V203.337C489.842 198.718 488.836 194.145 486.915 189.984L486.687 189.481C483.76 183.171 479.05 177.775 472.831 174.665C463.594 170.047 453.123 170.55 444.709 175.351L362.673 222.131C354.03 227.07 343.65 227.984 334.276 224.6L330.938 223.411C322.524 220.393 315.573 213.809 312.967 205.257C309.08 192.499 314.521 179.375 325.359 172.973L422.348 115.448C428.704 111.698 433.048 104.747 433.094 96.4248C433.139 91.0289 430.899 85.9073 427.423 81.7918C425.64 79.6883 423.491 77.9506 421.067 76.5788L288.274 2.95675C281.872 -0.564303 274.052 -1.06731 267.01 2.13365C258.368 6.02053 253.246 15.1204 253.246 24.5861V24.9062Z" fill="black"/>
<path d="M236.55 24.9062V200.319C236.55 232.191 219.356 261.549 191.554 277.142L44.5389 359.498C36.3994 364.071 26.2021 364.345 17.4223 359.406C11.432 356.023 7.08782 350.307 4.89288 343.767L2.19494 335.856C0.777373 331.65 0 327.26 0 322.824V203.428C0 198.81 1.00601 194.237 2.92658 190.076L3.15522 189.573C6.0818 183.262 10.7918 177.866 16.965 174.757C26.2021 170.138 36.6737 170.641 45.0877 175.443L127.123 222.222C135.766 227.161 146.146 228.076 155.52 224.692L158.859 223.503C167.272 220.485 174.223 213.9 176.83 205.349C180.716 192.591 175.275 179.467 164.437 173.065L67.4486 115.539C61.6869 112.155 57.6171 106.165 56.794 98.8941C56.1081 92.7208 58.3487 86.5932 62.3728 81.8833C64.1562 79.7798 66.3054 77.9964 68.6832 76.6703L201.523 2.95675C207.925 -0.564303 215.744 -1.06731 222.786 2.13365C231.429 6.02053 236.55 15.1204 236.55 24.5861V24.9062Z" fill="black"/>
<path d="M200.792 289.21C228.137 272.885 262.204 272.565 289.824 288.479L435.924 372.435C443.195 376.642 448.362 384.004 449.551 392.83C450.603 400.695 447.859 408.606 442.738 414.642L437.387 420.998C434.507 424.382 431.123 427.263 427.282 429.55L324.76 490.779C320.827 493.157 316.392 494.62 311.819 495.123L311.179 495.215C304.274 495.947 297.186 494.666 291.378 490.916C282.69 485.338 277.797 476.101 277.614 466.452L275.694 372.069C275.511 362.101 270.938 352.727 263.256 346.416L260.512 344.175C253.607 338.505 244.416 335.899 235.728 338.048C222.787 341.249 214.327 352.635 214.373 365.21L214.693 478.021C214.693 486.389 209.937 494.666 200.883 498.462C196.95 500.108 192.561 500.336 188.354 499.605C185.656 499.148 183.095 498.233 180.717 496.861L49.9354 420.861C47.6033 419.535 45.4083 417.889 43.6707 415.877C33.6563 404.399 36.7658 387.343 49.2037 379.935L200.929 289.302L200.792 289.21Z" fill="black"/>
<path d="M691.602 350.88C678.962 350.88 667.202 348.56 656.322 343.92C645.602 339.28 636.242 332.88 628.242 324.72C620.402 316.4 614.242 306.64 609.762 295.44C605.282 284.24 603.042 271.92 603.042 258.48C603.042 245.2 605.202 232.96 609.522 221.76C614.002 210.4 620.242 200.64 628.242 192.48C636.242 184.16 645.602 177.76 656.322 173.28C667.042 168.64 678.802 166.32 691.602 166.32C704.242 166.32 715.522 168.48 725.442 172.8C735.522 177.12 744.002 182.8 750.882 189.84C757.762 196.72 762.722 204.24 765.762 212.4L740.322 224.4C736.482 214.8 730.322 207.04 721.842 201.12C713.522 195.04 703.442 192 691.602 192C679.762 192 669.282 194.8 660.162 200.4C651.042 206 643.922 213.76 638.802 223.68C633.842 233.6 631.362 245.2 631.362 258.48C631.362 271.76 633.842 283.44 638.802 293.52C643.922 303.44 651.042 311.2 660.162 316.8C669.282 322.24 679.762 324.96 691.602 324.96C703.442 324.96 713.522 322 721.842 316.08C730.322 310.16 736.482 302.4 740.322 292.8L765.762 304.8C762.722 312.8 757.762 320.32 750.882 327.36C744.002 334.4 735.522 340.08 725.442 344.4C715.522 348.72 704.242 350.88 691.602 350.88ZM852.541 350.88C840.061 350.88 828.621 347.92 818.221 342C807.981 336.08 799.821 328 793.741 317.76C787.661 307.52 784.621 295.92 784.621 282.96C784.621 269.84 787.661 258.24 793.741 248.16C799.821 237.92 807.981 229.92 818.221 224.16C828.461 218.24 839.901 215.28 852.541 215.28C865.341 215.28 876.781 218.24 886.861 224.16C897.101 229.92 905.181 237.92 911.101 248.16C917.181 258.24 920.221 269.84 920.221 282.96C920.221 296.08 917.181 307.76 911.101 318C905.021 328.24 896.861 336.32 886.621 342.24C876.381 348 865.021 350.88 852.541 350.88ZM852.541 325.68C860.221 325.68 867.021 323.84 872.941 320.16C878.861 316.48 883.501 311.44 886.861 305.04C890.381 298.48 892.141 291.12 892.141 282.96C892.141 274.8 890.381 267.52 886.861 261.12C883.501 254.72 878.861 249.68 872.941 246C867.021 242.32 860.221 240.48 852.541 240.48C845.021 240.48 838.221 242.32 832.141 246C826.221 249.68 821.501 254.72 817.981 261.12C814.621 267.52 812.941 274.8 812.941 282.96C812.941 291.12 814.621 298.48 817.981 305.04C821.501 311.44 826.221 316.48 832.141 320.16C838.221 323.84 845.021 325.68 852.541 325.68ZM946.697 348V218.16H972.617V244.32L970.217 240.48C973.097 232 977.737 225.92 984.137 222.24C990.537 218.4 998.217 216.48 1007.18 216.48H1015.1V241.2H1003.82C994.857 241.2 987.577 244 981.977 249.6C976.537 255.04 973.817 262.88 973.817 273.12V348H946.697ZM1092.15 349.44C1078.55 349.44 1067.99 345.6 1060.47 337.92C1052.95 330.24 1049.19 319.44 1049.19 305.52V242.64H1026.39V218.16H1029.99C1036.07 218.16 1040.79 216.4 1044.15 212.88C1047.51 209.36 1049.19 204.56 1049.19 198.48V188.4H1076.31V218.16H1105.83V242.64H1076.31V304.32C1076.31 308.8 1077.03 312.64 1078.47 315.84C1079.91 318.88 1082.23 321.28 1085.43 323.04C1088.63 324.64 1092.79 325.44 1097.91 325.44C1099.19 325.44 1100.63 325.36 1102.23 325.2C1103.83 325.04 1105.35 324.88 1106.79 324.72V348C1104.55 348.32 1102.07 348.64 1099.35 348.96C1096.63 349.28 1094.23 349.44 1092.15 349.44ZM1191.88 350.88C1178.92 350.88 1167.4 347.92 1157.32 342C1147.4 335.92 1139.64 327.76 1134.04 317.52C1128.44 307.12 1125.64 295.52 1125.64 282.72C1125.64 269.6 1128.44 258 1134.04 247.92C1139.8 237.84 1147.48 229.92 1157.08 224.16C1166.68 218.24 1177.56 215.28 1189.72 215.28C1199.48 215.28 1208.2 216.96 1215.88 220.32C1223.56 223.68 1230.04 228.32 1235.32 234.24C1240.6 240 1244.6 246.64 1247.32 254.16C1250.2 261.68 1251.64 269.68 1251.64 278.16C1251.64 280.24 1251.56 282.4 1251.4 284.64C1251.24 286.88 1250.92 288.96 1250.44 290.88H1147V269.28H1235.08L1222.12 279.12C1223.72 271.28 1223.16 264.32 1220.44 258.24C1217.88 252 1213.88 247.12 1208.44 243.6C1203.16 239.92 1196.92 238.08 1189.72 238.08C1182.52 238.08 1176.12 239.92 1170.52 243.6C1164.92 247.12 1160.6 252.24 1157.56 258.96C1154.52 265.52 1153.32 273.52 1153.96 282.96C1153.16 291.76 1154.36 299.44 1157.56 306C1160.92 312.56 1165.56 317.68 1171.48 321.36C1177.56 325.04 1184.44 326.88 1192.12 326.88C1199.96 326.88 1206.6 325.12 1212.04 321.6C1217.64 318.08 1222.04 313.52 1225.24 307.92L1247.32 318.72C1244.76 324.8 1240.76 330.32 1235.32 335.28C1230.04 340.08 1223.64 343.92 1216.12 346.8C1208.76 349.52 1200.68 350.88 1191.88 350.88ZM1262.8 348L1308.16 282.96L1262.8 218.16H1294.72L1331.92 272.4H1316.56L1353.76 218.16H1385.68L1340.08 282.96L1385.44 348H1353.52L1316.8 293.52H1331.68L1294.72 348H1262.8Z" fill="black"/>
</svg>
