<svg width="2810" height="500" viewBox="0 0 2810 500" fill="none" xmlns="http://www.w3.org/2000/svg">
<g clip-path="url(#clip0_907_22)">
<path d="M253.246 24.9062V200.319C253.246 232.191 270.44 261.549 298.242 277.142L445.257 359.498C453.443 364.071 463.686 364.345 472.465 359.315C478.456 355.931 482.754 350.124 484.949 343.63L487.647 335.811C489.11 331.604 489.842 327.214 489.842 322.733V203.337C489.842 198.718 488.836 194.145 486.915 189.984L486.687 189.481C483.76 183.171 479.05 177.775 472.831 174.665C463.594 170.047 453.123 170.55 444.709 175.351L362.673 222.131C354.03 227.07 343.65 227.984 334.276 224.6L330.938 223.411C322.524 220.393 315.573 213.809 312.967 205.257C309.08 192.499 314.521 179.375 325.359 172.973L422.348 115.448C428.704 111.698 433.048 104.747 433.094 96.4248C433.139 91.0289 430.899 85.9073 427.423 81.7918C425.64 79.6883 423.491 77.9506 421.067 76.5788L288.274 2.95675C281.872 -0.564303 274.052 -1.06731 267.01 2.13365C258.368 6.02053 253.246 15.1204 253.246 24.5861V24.9062Z" fill="black"/>
<path d="M236.55 24.9062V200.319C236.55 232.191 219.356 261.549 191.554 277.142L44.5389 359.498C36.3994 364.071 26.2021 364.345 17.4223 359.406C11.432 356.023 7.08782 350.307 4.89288 343.767L2.19494 335.856C0.777373 331.65 0 327.26 0 322.824V203.428C0 198.81 1.00601 194.237 2.92658 190.076L3.15522 189.573C6.0818 183.262 10.7918 177.866 16.965 174.757C26.2021 170.138 36.6737 170.641 45.0877 175.443L127.123 222.222C135.766 227.161 146.146 228.076 155.52 224.692L158.859 223.503C167.272 220.485 174.223 213.9 176.83 205.349C180.716 192.591 175.275 179.467 164.437 173.065L67.4486 115.539C61.6869 112.155 57.6171 106.165 56.794 98.8941C56.1081 92.7208 58.3487 86.5932 62.3728 81.8833C64.1562 79.7798 66.3054 77.9964 68.6832 76.6703L201.523 2.95675C207.925 -0.564303 215.744 -1.06731 222.786 2.13365C231.429 6.02053 236.55 15.1204 236.55 24.5861V24.9062Z" fill="black"/>
<path d="M200.792 289.21C228.137 272.885 262.204 272.565 289.824 288.479L435.924 372.435C443.195 376.642 448.362 384.004 449.551 392.83C450.603 400.695 447.859 408.606 442.738 414.642L437.387 420.998C434.507 424.382 431.123 427.263 427.282 429.55L324.76 490.779C320.827 493.157 316.392 494.62 311.819 495.123L311.179 495.215C304.274 495.947 297.186 494.666 291.378 490.916C282.69 485.338 277.797 476.101 277.614 466.452L275.694 372.069C275.511 362.101 270.938 352.727 263.256 346.416L260.512 344.175C253.607 338.505 244.416 335.899 235.728 338.048C222.787 341.249 214.327 352.635 214.373 365.21L214.693 478.021C214.693 486.389 209.937 494.666 200.883 498.462C196.95 500.108 192.561 500.336 188.354 499.605C185.656 499.148 183.095 498.233 180.717 496.861L49.9354 420.861C47.6033 419.535 45.4083 417.889 43.6707 415.877C33.6563 404.399 36.7658 387.343 49.2037 379.935L200.929 289.302L200.792 289.21Z" fill="black"/>
<path d="M929.732 500C895.493 500 863.638 493.715 834.166 481.144C805.128 468.574 779.774 451.235 758.103 429.129C736.866 406.589 720.18 380.147 708.045 349.805C695.909 319.463 689.842 286.086 689.842 249.675C689.842 213.697 695.693 180.537 707.395 150.195C719.53 119.419 736.433 92.9779 758.103 70.8713C779.774 48.3312 805.128 30.9926 834.166 18.8556C863.204 6.28521 895.06 0 929.732 0C963.971 0 994.526 5.85176 1021.4 17.5553C1048.7 29.2588 1071.67 44.6467 1090.31 63.7191C1108.95 82.358 1122.38 102.731 1130.62 124.837L1061.7 157.347C1051.3 131.339 1034.62 110.316 1011.65 94.2783C989.109 77.8067 961.804 69.5709 929.732 69.5709C897.66 69.5709 869.272 77.1565 844.568 92.3277C819.864 107.499 800.577 128.522 786.708 155.397C773.272 182.271 766.555 213.697 766.555 249.675C766.555 285.652 773.272 317.295 786.708 344.603C800.577 371.478 819.864 392.501 844.568 407.672C869.272 422.41 897.66 429.779 929.732 429.779C961.804 429.779 989.109 421.76 1011.65 405.722C1034.62 389.684 1051.3 368.661 1061.7 342.653L1130.62 375.163C1122.38 396.836 1108.95 417.208 1090.31 436.281C1071.67 455.353 1048.7 470.741 1021.4 482.445C994.526 494.148 963.971 500 929.732 500Z" fill="black"/>
<path d="M1365.68 500C1331.88 500 1300.89 491.981 1272.72 475.943C1244.98 459.905 1222.87 438.015 1206.4 410.273C1189.93 382.531 1181.7 351.105 1181.7 315.995C1181.7 280.451 1189.93 249.025 1206.4 221.717C1222.87 193.975 1244.98 172.302 1272.72 156.697C1300.45 140.659 1331.44 132.64 1365.68 132.64C1400.35 132.64 1431.34 140.659 1458.65 156.697C1486.38 172.302 1508.27 193.975 1524.31 221.717C1540.78 249.025 1549.01 280.451 1549.01 315.995C1549.01 351.539 1540.78 383.182 1524.31 410.923C1507.84 438.665 1485.73 460.555 1458 476.593C1430.26 492.198 1399.49 500 1365.68 500ZM1365.68 431.729C1386.48 431.729 1404.9 426.745 1420.94 416.775C1436.98 406.805 1449.54 393.151 1458.65 375.813C1468.18 358.041 1472.95 338.101 1472.95 315.995C1472.95 293.888 1468.18 274.166 1458.65 256.827C1449.54 239.488 1436.98 225.834 1420.94 215.865C1404.9 205.895 1386.48 200.91 1365.68 200.91C1345.31 200.91 1326.89 205.895 1310.42 215.865C1294.39 225.834 1281.6 239.488 1272.07 256.827C1262.96 274.166 1258.41 293.888 1258.41 315.995C1258.41 338.101 1262.96 358.041 1272.07 375.813C1281.6 393.151 1294.39 406.805 1310.42 416.775C1326.89 426.745 1345.31 431.729 1365.68 431.729Z" fill="black"/>
<path d="M1620.73 492.198V140.442H1690.94V211.313L1684.44 200.91C1692.24 177.937 1704.81 161.465 1722.15 151.495C1739.48 141.092 1760.29 135.891 1784.56 135.891H1806.01V202.861H1775.46C1751.19 202.861 1731.47 210.446 1716.3 225.618C1701.56 240.355 1694.19 261.595 1694.19 289.337V492.198H1620.73Z" fill="black"/>
<path d="M2014.74 496.099C1977.9 496.099 1949.3 485.696 1928.93 464.889C1908.56 444.083 1898.37 414.824 1898.37 377.113V206.762H1836.61V140.442H1846.37C1862.83 140.442 1875.62 135.674 1884.72 126.138C1893.82 116.602 1898.37 103.598 1898.37 87.1261V59.8179H1971.84V140.442H2051.8V206.762H1971.84V373.862C1971.84 385.999 1973.79 396.402 1977.69 405.071C1981.59 413.307 1987.87 419.809 1996.54 424.577C2005.21 428.912 2016.48 431.079 2030.35 431.079C2033.81 431.079 2037.71 430.863 2042.05 430.429C2046.38 429.996 2050.5 429.562 2054.4 429.129V492.198C2048.33 493.065 2041.61 493.931 2034.25 494.798C2026.88 495.665 2020.38 496.099 2014.74 496.099Z" fill="black"/>
<path d="M2284.87 500C2249.76 500 2218.56 491.981 2191.25 475.943C2164.38 459.471 2143.36 437.365 2128.19 409.623C2113.02 381.448 2105.44 350.022 2105.44 315.345C2105.44 279.801 2113.02 248.374 2128.19 221.066C2143.8 193.758 2164.6 172.302 2190.6 156.697C2216.61 140.659 2246.08 132.64 2279.02 132.64C2305.46 132.64 2329.08 137.191 2349.88 146.294C2370.68 155.397 2388.24 167.967 2402.54 184.005C2416.84 199.61 2427.68 217.599 2435.04 237.971C2442.85 258.344 2446.75 280.017 2446.75 302.991C2446.75 308.626 2446.53 314.478 2446.1 320.546C2445.66 326.615 2444.8 332.25 2443.5 337.451H2163.3V278.934H2401.89L2366.78 305.592C2371.12 284.352 2369.6 265.496 2362.23 249.025C2355.3 232.12 2344.46 218.899 2329.73 209.363C2315.42 199.393 2298.52 194.408 2279.02 194.408C2259.51 194.408 2242.18 199.393 2227.01 209.363C2211.84 218.899 2200.14 232.77 2191.9 250.975C2183.67 268.747 2180.42 290.42 2182.15 315.995C2179.98 339.835 2183.24 360.642 2191.9 378.414C2201 396.186 2213.57 410.056 2229.61 420.026C2246.08 429.996 2264.72 434.98 2285.52 434.98C2306.76 434.98 2324.74 430.212 2339.48 420.676C2354.65 411.14 2366.57 398.786 2375.23 383.615L2435.04 412.874C2428.11 429.345 2417.27 444.3 2402.54 457.737C2388.24 470.741 2370.9 481.144 2350.53 488.947C2330.59 496.316 2308.71 500 2284.87 500Z" fill="black"/>
<path d="M2476.99 492.198L2599.86 315.995L2476.99 140.442H2563.45L2664.22 287.386H2622.61L2723.38 140.442H2809.84L2686.32 315.995L2809.19 492.198H2722.73L2623.26 344.603H2663.57L2563.45 492.198H2476.99Z" fill="black"/>
</g>
<defs>
<clipPath id="clip0_907_22">
<rect width="2809.84" height="500.001" fill="white"/>
</clipPath>
</defs>
</svg>
